<?xml version="1.0" encoding="UTF-8"?>
<svg id="Layer_2" data-name="Layer 2" xmlns="http://www.w3.org/2000/svg" viewBox="0 0 699 699">
  <defs>
    <style>
      .cls-1 {
        fill: #0a4bff;
      }
    </style>
  </defs>
  <g id="Layer_1-2" data-name="Layer 1">
    <path class="cls-1" d="M0,0v699h233.1L391.86,161.97c10.81-36.57,44.99-62.11,83.13-62.11h20.64c-22.3,12.68-39.26,33.72-46.57,58.45l-78.23,264.63-.69,2.3-19.07,64.54-.66,2.2-61.2,207.02h13.65l58.58-198.71h56.12l-58.74,198.71h340.19V0H0ZM282.18,487.36H121.75c-24.03,0-43.58-19.55-43.58-43.58v-30.76c.47.57.96,1.14,1.46,1.7,10.7,11.97,26.06,18.84,42.12,18.84h176.35l-15.91,53.81ZM301.91,420.62H121.75c-12.39,0-24.23-5.3-32.49-14.53-7.15-8-11.09-18.32-11.09-29.05v-30.78c.48.58.97,1.15,1.47,1.71,10.7,11.97,26.05,18.83,42.11,18.83h196.08l-15.91,53.81ZM461.46,161.97c10.27-34.78,41.48-59.67,77.66-61.94,1.88-.12,3.72-.17,5.48-.17h10.96c11.65,0,22.59,4.53,30.81,12.77,8.55,8.55,13.08,19.91,12.76,32-.62,23.39-20.53,42.41-44.39,42.41h-44.58l-49.32,166.85h-56.11l56.74-191.91ZM599.14,443.78c0,24.03-19.55,43.58-43.58,43.58h-190.3l15.9-53.81h174.4c16.07,0,31.42-6.87,42.12-18.84.5-.56.98-1.12,1.46-1.7v30.76ZM599.14,377.04c0,10.74-3.94,21.06-11.09,29.05-8.26,9.23-20.1,14.53-32.49,14.53h-170.57l15.91-53.81h154.66c16.06,0,31.41-6.87,42.11-18.84.5-.56.99-1.13,1.47-1.71v30.78Z"/>
  </g>
</svg>