<?xml version="1.0" encoding="UTF-8"?>
<svg id="Layer_2" data-name="Layer 2" xmlns="http://www.w3.org/2000/svg" viewBox="0 0 700 700">
  <defs>
    <style>
      .cls-1 {
        fill: #ffd52f;
      }

      .cls-2 {
        fill: #0a4bff;
      }

      .cls-3 {
        fill: #fffef5;
      }
    </style>
  </defs>
  <g id="Layer_1-2" data-name="Layer 1">
    <g>
      <rect class="cls-2" width="700" height="700"/>
      <g>
        <path class="cls-3" d="M223.22,402.09h-53.71v156.56h-64.36v-156.56h-23.33v-53.44h23.33v-6.02c0-25.84,7.4-45.47,22.21-58.9,14.8-13.42,36.51-20.13,65.11-20.13,4.76,0,8.28.13,10.54.38v54.57c-12.3-.75-20.95,1.01-25.97,5.27-5.02,4.27-7.53,11.92-7.53,22.96v1.88h53.71v53.44Z"/>
        <path class="cls-3" d="M280.57,348.65v210h-64.36v-210h64.36Z"/>
        <path class="cls-3" d="M390.49,356.36c11.29-6.65,23.83-9.97,37.63-9.97v68.12h-17.69c-16.06,0-28.1,3.45-36.13,10.35-8.03,6.9-12.04,19.01-12.04,36.32v97.48h-64.36v-210h52.85l11.5,35c7.53-11.54,16.94-20.63,28.23-27.29Z"/>
        <path class="cls-3" d="M610.43,387.6c-8.28-13.67-19.82-24.15-34.62-31.43-14.81-7.27-31.62-10.91-50.44-10.91-17.56,0-33.43,3.45-47.6,10.35-14.18,6.9-25.78,16.37-34.82,28.41-6.9,9.21-12.05,19.38-15.43,30.49h65.91c2.06-3.51,4.68-6.52,7.86-9.03,6.02-4.77,13.67-7.15,22.95-7.15,10.29,0,18.38,3.32,24.28,9.97,5.89,6.65,9.09,15.75,9.6,27.28h-47.05c-29.86,0-52.31,6.09-67.36,18.26-15.06,12.17-22.59,27.91-22.59,47.23,0,12.3,3.02,23.09,9.04,32.37,6.02,9.28,14.23,16.5,24.65,21.64,10.41,5.14,22.01,7.71,34.81,7.71,14.55,0,28.23-3.14,41.02-9.41,12.8-6.27,21.96-14.3,27.48-24.08l8.11,29.35h56.62v-123.44c0-18.07-4.14-33.93-12.42-47.61ZM557.74,472.47c0,8.28-2.2,15.61-6.59,22.01-4.39,6.4-10.1,11.29-17.12,14.68-7.03,3.39-14.3,5.08-21.83,5.08-8.03,0-14.3-1.94-18.82-5.83-4.51-3.89-6.77-9.22-6.77-16s2.57-12.23,7.71-16.37,12.99-6.21,23.53-6.21h39.89v2.64Z"/>
        <path class="cls-1" d="M248.39,262.16h0c-25,0-34.28,15.35-34.28,34.28v.15c0,18.93,9.03,34.28,34.28,34.28h0c25.29,0,34.28-15.35,34.28-34.28v-.15c0-18.93-8.11-34.28-34.28-34.28Z"/>
      </g>
    </g>
  </g>
</svg>